<svg id="svg" version="1.1" xmlns="http://www.w3.org/2000/svg" xmlns:xlink="http://www.w3.org/1999/xlink" width="400" height="400" viewBox="0, 0, 400,400"><g id="svgg"><path id="path0" d="M0.000 200.000 L 0.000 400.000 200.000 400.000 L 400.000 400.000 400.000 200.000 L 400.000 0.000 200.000 0.000 L 0.000 0.000 0.000 200.000 M149.444 68.244 C 150.293 68.599,151.374 69.184,151.847 69.544 C 152.781 70.256,153.224 70.557,156.109 72.441 C 162.965 76.917,162.403 85.617,155.213 86.308 L 153.200 86.502 153.200 89.071 C 153.200 90.484,152.953 92.126,152.652 92.720 C 152.351 93.314,151.973 94.700,151.812 95.800 C 151.442 98.343,150.977 99.200,149.966 99.200 C 148.038 99.200,145.173 96.614,145.863 95.498 C 146.026 95.234,146.385 93.934,146.660 92.609 C 146.935 91.284,147.381 89.452,147.652 88.538 L 148.145 86.876 146.428 85.226 C 144.373 83.252,144.436 83.220,141.374 87.821 C 138.553 92.062,138.570 92.050,136.481 91.119 C 134.226 90.114,133.624 88.705,134.781 87.140 C 135.231 86.531,135.600 85.873,135.600 85.678 C 135.600 85.483,135.960 84.998,136.400 84.600 C 136.840 84.202,137.200 83.732,137.200 83.556 C 137.200 83.234,138.685 80.871,139.800 79.419 C 140.130 78.989,140.400 78.508,140.400 78.350 C 140.400 78.094,143.499 73.219,144.309 72.200 C 144.484 71.980,145.236 70.855,145.981 69.700 C 147.514 67.322,147.376 67.380,149.444 68.244 M149.881 75.163 C 149.214 75.405,148.801 75.961,147.557 78.288 C 146.381 80.489,151.959 83.277,153.818 81.418 C 156.044 79.192,152.834 74.092,149.881 75.163 M171.704 82.401 C 172.972 83.280,174.104 84.000,174.220 84.000 C 174.337 84.000,174.920 84.332,175.516 84.737 C 176.112 85.143,177.410 85.989,178.400 86.616 C 179.390 87.244,180.686 88.197,181.280 88.734 L 182.360 89.711 181.572 91.255 C 180.614 93.133,178.798 93.385,176.928 91.900 C 175.556 90.812,174.615 90.210,172.900 89.323 C 172.185 88.954,171.600 88.505,171.600 88.326 C 171.600 87.782,169.201 87.955,169.191 88.500 C 169.186 88.775,168.830 89.450,168.400 90.000 C 167.230 91.496,167.300 91.597,171.402 94.342 C 175.685 97.208,176.232 98.330,174.146 99.971 C 172.709 101.101,172.487 101.056,169.422 99.000 C 167.945 98.010,166.631 97.200,166.500 97.200 C 166.370 97.200,165.938 96.905,165.540 96.545 C 164.722 95.805,163.725 96.653,162.770 98.900 C 162.513 99.505,162.145 100.000,161.951 100.000 C 161.354 100.000,161.563 100.883,162.300 101.471 C 163.819 102.685,167.034 104.760,169.083 105.849 C 170.669 106.693,171.161 108.390,170.230 109.810 C 169.035 111.635,167.179 111.344,164.175 108.860 C 163.941 108.666,163.311 108.277,162.775 107.994 C 155.631 104.223,153.367 101.714,155.200 99.600 C 155.640 99.093,156.000 98.463,156.000 98.201 C 156.000 97.939,156.360 97.398,156.800 97.000 C 157.240 96.602,157.600 96.132,157.600 95.956 C 157.600 95.652,159.191 93.081,159.940 92.175 C 160.134 91.941,160.521 91.311,160.800 90.775 C 161.080 90.239,162.650 87.775,164.290 85.300 C 167.790 80.017,168.098 79.897,171.704 82.401 M194.000 96.318 C 200.879 99.637,203.721 107.975,197.980 107.994 C 195.778 108.001,195.200 107.498,195.200 105.574 C 195.200 101.928,189.494 98.995,186.691 101.200 C 186.131 101.640,185.489 102.000,185.264 102.000 C 185.038 102.000,184.740 102.360,184.600 102.800 C 184.460 103.240,184.173 103.600,183.960 103.600 C 183.748 103.600,183.461 103.915,183.322 104.300 C 183.183 104.685,182.714 105.513,182.279 106.141 C 179.878 109.603,181.216 114.276,185.118 116.054 L 186.948 116.887 188.685 116.044 C 191.111 114.865,191.783 114.965,192.781 116.657 C 193.918 118.584,193.713 119.644,192.042 120.478 C 191.295 120.851,190.494 121.346,190.262 121.578 C 188.524 123.316,182.445 121.450,178.720 118.034 C 175.316 114.911,173.620 108.675,175.522 106.272 C 175.727 106.013,176.113 105.125,176.379 104.300 C 176.645 103.475,177.009 102.800,177.188 102.800 C 177.367 102.800,177.617 102.385,177.745 101.878 C 179.063 96.626,188.177 93.509,194.000 96.318 M212.916 108.806 C 216.448 109.951,219.398 112.434,221.300 115.862 C 222.182 117.451,222.284 123.012,221.454 124.211 C 221.154 124.645,220.770 125.440,220.602 125.977 C 219.926 128.143,217.105 131.607,214.469 133.508 C 211.642 135.548,204.910 135.710,202.788 133.789 C 202.430 133.465,201.995 133.200,201.821 133.200 C 200.393 133.200,197.122 128.912,196.242 125.885 C 195.556 123.524,196.211 118.632,197.405 117.200 C 197.680 116.870,198.032 116.186,198.186 115.681 C 198.340 115.175,199.680 113.555,201.163 112.081 C 205.114 108.155,208.231 107.286,212.916 108.806 M207.855 114.261 C 205.460 114.952,201.943 120.674,201.913 123.925 C 201.871 128.694,208.172 131.472,211.608 128.200 C 218.862 121.291,216.313 111.821,207.855 114.261 M234.831 122.668 C 235.179 122.960,235.575 123.200,235.711 123.200 C 237.022 123.200,243.998 129.563,244.002 130.762 C 244.004 131.113,244.274 131.916,244.602 132.546 C 245.647 134.549,244.688 140.109,242.966 142.031 C 242.655 142.379,242.400 142.846,242.400 143.069 C 242.400 145.371,234.762 150.187,231.600 149.880 C 229.198 149.646,226.371 148.625,224.200 147.208 C 223.540 146.777,222.460 146.124,221.800 145.756 C 221.140 145.389,220.510 144.977,220.400 144.841 C 220.290 144.704,219.520 144.144,218.690 143.596 C 216.538 142.177,216.433 141.236,218.138 138.666 C 218.921 137.488,219.779 136.045,220.045 135.462 C 220.311 134.878,220.658 134.400,220.816 134.400 C 220.974 134.400,221.327 133.860,221.600 133.200 C 221.873 132.540,222.222 132.000,222.374 132.000 C 222.527 132.000,222.954 131.415,223.323 130.700 C 223.693 129.985,224.221 129.057,224.498 128.637 C 224.774 128.217,225.769 126.687,226.708 125.237 C 229.331 121.187,229.365 121.138,229.929 120.551 C 230.456 120.002,232.942 121.075,234.831 122.668 M231.100 129.379 C 230.495 130.137,230.000 130.892,230.000 131.057 C 230.000 131.398,228.056 134.329,227.300 135.129 C 227.025 135.419,226.800 135.892,226.800 136.180 C 226.800 136.467,226.534 136.923,226.208 137.193 C 225.466 137.809,224.400 139.915,224.401 140.761 C 224.402 141.125,225.357 141.915,226.615 142.593 C 230.925 144.918,235.382 143.749,237.255 139.800 C 237.464 139.360,237.894 138.550,238.211 138.000 C 241.010 133.149,234.444 125.188,231.100 129.379 M255.927 136.200 C 256.581 136.750,257.260 137.200,257.436 137.200 C 257.793 137.200,260.705 139.121,261.529 139.900 C 261.819 140.175,262.215 140.400,262.409 140.400 C 262.927 140.400,266.094 142.599,266.970 143.567 C 268.512 145.271,266.020 147.984,263.667 147.163 C 262.970 146.920,262.400 146.593,262.400 146.435 C 262.400 146.277,261.815 145.843,261.100 145.469 C 260.385 145.096,259.260 144.435,258.600 144.000 C 255.903 142.222,255.645 142.172,254.606 143.227 C 252.593 145.273,252.823 146.053,256.073 148.210 C 260.322 151.028,262.233 153.200,260.464 153.200 C 260.280 153.200,259.923 153.650,259.673 154.200 C 259.109 155.436,257.713 155.519,256.291 154.400 C 255.731 153.960,255.171 153.600,255.045 153.600 C 254.919 153.600,253.819 152.963,252.601 152.184 C 250.110 150.590,249.770 150.647,248.230 152.918 C 246.824 154.990,246.926 155.673,248.813 156.820 C 249.700 157.359,250.802 158.110,251.261 158.488 C 251.720 158.867,252.434 159.284,252.848 159.415 C 253.261 159.546,253.600 159.822,253.600 160.027 C 253.600 160.232,253.870 160.400,254.200 160.400 C 256.301 160.400,256.877 162.887,255.192 164.685 C 253.822 166.146,253.548 166.112,250.704 164.125 C 249.661 163.396,248.722 162.800,248.617 162.800 C 248.451 162.800,247.211 162.004,242.400 158.810 C 241.850 158.445,241.085 158.029,240.700 157.886 C 240.315 157.742,240.000 157.364,240.000 157.045 C 240.000 156.726,239.903 156.214,239.785 155.906 C 239.667 155.599,240.747 153.588,242.185 151.437 C 243.623 149.286,244.800 147.447,244.800 147.351 C 244.800 147.254,246.146 145.129,247.790 142.627 C 249.435 140.126,250.986 137.630,251.236 137.081 C 252.132 135.114,254.180 134.730,255.927 136.200 M229.876 160.900 C 230.054 161.175,230.303 164.010,230.430 167.200 C 230.662 173.063,231.578 178.699,232.624 180.706 C 232.938 181.307,233.196 182.107,233.198 182.483 C 233.199 182.859,233.986 184.659,234.947 186.483 L 236.695 189.800 240.447 190.306 C 244.232 190.817,252.800 190.324,252.800 189.595 C 252.800 189.431,253.385 189.060,254.100 188.770 C 257.159 187.531,262.000 180.820,262.000 177.818 C 262.000 177.338,262.356 175.608,262.791 173.973 C 263.310 172.020,263.584 169.688,263.591 167.176 C 263.601 163.029,263.915 162.209,265.657 161.789 C 270.110 160.717,272.337 172.177,269.195 180.000 C 268.709 181.210,268.062 183.092,267.757 184.182 C 265.953 190.633,259.195 197.600,254.741 197.600 C 254.422 197.600,253.977 197.783,253.754 198.006 C 253.531 198.229,252.010 198.681,250.374 199.011 C 242.812 200.535,243.208 200.526,237.800 199.294 C 231.594 197.880,226.616 193.604,223.760 187.235 C 223.209 186.006,222.509 184.460,222.204 183.800 C 221.900 183.140,221.533 181.970,221.389 181.200 C 221.245 180.430,220.851 178.990,220.514 178.000 C 219.706 175.628,219.275 162.555,219.962 161.271 C 220.520 160.229,229.231 159.903,229.876 160.900 M173.966 162.758 C 174.645 163.614,175.206 164.469,175.214 164.658 C 175.221 164.846,175.575 165.720,176.000 166.600 C 177.541 169.790,177.011 174.671,174.634 179.200 C 174.345 179.750,173.985 180.718,173.834 181.350 C 173.555 182.520,170.531 189.052,169.925 189.793 C 169.742 190.017,168.856 191.149,167.955 192.309 C 162.243 199.665,148.240 202.247,138.965 197.654 C 135.323 195.850,127.600 185.768,127.600 182.816 C 127.600 182.421,127.330 181.451,127.000 180.662 C 126.609 179.725,126.400 177.896,126.400 175.400 C 126.400 172.904,126.609 171.075,127.000 170.138 C 127.330 169.349,127.600 168.263,127.600 167.726 C 127.600 166.590,129.360 162.697,130.182 162.015 C 131.149 161.213,131.748 163.072,131.915 167.400 C 132.001 169.600,132.325 172.171,132.635 173.114 C 132.946 174.057,133.200 175.299,133.200 175.875 C 133.200 176.785,134.581 179.977,136.126 182.638 C 137.507 185.017,141.538 187.831,144.925 188.779 C 145.968 189.071,146.917 189.465,147.034 189.655 C 147.151 189.845,150.101 190.000,153.588 190.000 L 159.929 190.000 160.864 188.850 C 161.929 187.543,162.685 186.257,164.894 182.000 C 166.398 179.101,166.456 178.842,166.605 174.323 C 166.720 170.816,166.952 169.215,167.532 167.923 C 167.957 166.975,168.440 165.750,168.606 165.200 C 169.698 161.571,172.144 160.457,173.966 162.758 M118.400 194.806 C 121.150 195.019,124.300 195.484,125.400 195.840 C 131.562 197.830,136.620 200.154,137.408 201.357 C 139.872 205.116,139.664 218.643,137.092 221.904 C 136.874 222.182,136.388 222.980,136.013 223.679 C 133.275 228.786,121.687 231.467,113.000 229.003 C 104.792 226.675,98.889 212.936,102.344 204.200 C 104.026 199.947,106.193 196.023,107.204 195.398 C 108.634 194.513,112.199 194.325,118.400 194.806 M283.045 194.832 C 290.661 195.891,295.200 200.608,295.200 207.465 C 295.200 209.862,293.824 216.273,293.158 216.980 C 292.961 217.189,292.798 217.639,292.796 217.980 C 292.794 218.321,292.350 219.500,291.809 220.600 C 291.268 221.700,290.813 222.780,290.799 223.000 C 290.725 224.150,287.314 226.795,285.902 226.799 C 285.517 226.799,284.097 227.183,282.744 227.651 C 278.769 229.027,269.786 228.919,266.915 227.460 C 260.481 224.193,257.635 216.662,258.583 205.417 C 258.921 201.418,258.622 201.872,263.930 197.281 C 267.228 194.429,273.952 193.567,283.045 194.832 M182.690 199.441 C 185.364 201.481,186.399 203.409,186.406 206.360 C 186.415 210.210,186.550 210.323,190.042 209.417 C 191.632 209.005,193.218 208.427,193.566 208.133 C 193.915 207.839,194.928 206.982,195.817 206.228 C 198.209 204.200,199.109 204.112,200.859 205.732 C 206.118 210.605,211.038 209.461,212.169 203.102 C 212.871 199.158,215.034 198.742,216.332 202.303 C 219.520 211.046,210.234 220.584,202.087 216.934 C 200.939 216.419,198.834 216.214,192.854 216.034 L 185.108 215.800 183.333 213.838 C 180.358 210.550,179.200 207.540,179.200 203.097 C 179.200 198.152,179.958 197.358,182.690 199.441 " stroke="none" fill="#fbfbfb" fill-rule="evenodd"></path><path id="path1" d="M147.161 69.673 C 146.893 70.174,146.432 70.825,146.137 71.120 C 145.842 71.416,145.600 71.886,145.600 72.167 C 145.600 72.447,145.240 73.002,144.800 73.400 C 144.360 73.798,144.000 74.372,144.000 74.675 C 144.000 74.977,143.730 75.329,143.400 75.455 C 143.070 75.582,142.800 75.891,142.799 76.143 C 142.799 76.394,142.121 77.590,141.292 78.800 C 140.464 80.010,139.568 81.495,139.302 82.100 C 139.035 82.705,138.633 83.200,138.409 83.200 C 138.184 83.200,138.000 83.406,138.000 83.659 C 138.000 83.911,137.365 85.075,136.588 86.245 C 135.034 88.586,135.188 89.773,137.111 90.261 C 137.958 90.476,139.999 88.935,140.001 88.079 C 140.005 86.034,144.335 82.177,145.587 83.103 C 149.078 85.685,149.603 87.533,148.000 91.600 C 146.621 95.099,147.203 98.000,149.286 98.000 C 150.064 98.000,151.200 95.676,151.200 94.085 C 151.200 93.429,151.498 91.968,151.863 90.838 C 152.422 89.107,152.444 88.630,152.003 87.806 C 151.256 86.409,152.035 85.600,154.127 85.600 C 156.223 85.600,158.650 83.991,159.007 82.366 C 159.147 81.730,159.428 81.106,159.631 80.981 C 160.629 80.364,159.495 76.529,157.874 75.043 C 156.657 73.926,152.065 70.800,151.641 70.800 C 151.458 70.800,150.879 70.465,150.354 70.055 C 148.701 68.764,147.711 68.645,147.161 69.673 M152.932 74.974 C 156.591 77.404,157.138 79.392,154.837 81.900 C 153.613 83.235,150.803 83.776,150.196 82.794 C 150.059 82.571,149.251 82.034,148.402 81.601 C 145.982 80.366,145.739 78.899,147.509 76.200 C 149.516 73.140,150.005 73.029,152.932 74.974 M167.600 81.939 C 167.600 82.125,167.240 82.693,166.800 83.200 C 166.360 83.707,166.000 84.337,166.000 84.599 C 166.000 84.861,165.640 85.402,165.200 85.800 C 164.760 86.198,164.400 86.668,164.400 86.844 C 164.400 87.020,163.947 87.847,163.393 88.682 C 162.839 89.517,162.212 90.470,162.000 90.800 C 161.788 91.130,161.198 92.030,160.688 92.800 C 160.178 93.570,159.641 94.515,159.493 94.900 C 159.346 95.285,159.039 95.600,158.813 95.600 C 158.586 95.600,158.400 95.825,158.399 96.100 C 158.399 96.375,157.679 97.637,156.799 98.904 C 154.948 101.571,154.827 102.291,156.171 102.628 C 156.704 102.762,157.452 103.216,157.833 103.636 C 158.213 104.056,158.668 104.400,158.844 104.400 C 159.163 104.400,161.764 106.022,162.685 106.796 C 162.952 107.020,163.627 107.412,164.185 107.666 C 164.743 107.920,165.200 108.280,165.200 108.464 C 165.200 108.649,165.470 108.800,165.800 108.800 C 166.130 108.800,166.756 109.156,167.190 109.590 C 167.977 110.377,167.985 110.376,169.028 109.409 L 170.075 108.439 168.992 107.465 C 167.013 105.685,166.402 105.200,166.141 105.200 C 165.772 105.200,161.765 102.507,161.008 101.751 C 160.279 101.022,160.471 100.113,161.745 98.259 C 164.162 94.743,164.695 94.581,167.524 96.500 C 172.377 99.793,172.615 99.891,173.598 99.001 C 174.409 98.267,174.684 97.200,174.061 97.200 C 173.875 97.200,173.307 96.840,172.800 96.400 C 172.293 95.960,171.663 95.600,171.401 95.600 C 171.139 95.600,170.598 95.240,170.200 94.800 C 169.802 94.360,169.265 94.000,169.008 94.000 C 166.877 94.000,166.316 90.816,168.035 88.479 C 169.420 86.595,169.990 86.465,172.000 87.573 C 172.770 87.997,173.805 88.533,174.300 88.762 C 174.795 88.992,175.200 89.365,175.200 89.590 C 175.200 89.816,175.435 90.000,175.722 90.000 C 176.010 90.000,176.820 90.425,177.524 90.944 C 179.115 92.118,180.800 91.953,180.800 90.623 C 180.800 89.811,179.327 88.000,178.666 88.000 C 178.304 88.000,175.128 85.983,174.600 85.418 C 174.380 85.183,173.750 84.769,173.200 84.498 C 172.033 83.924,170.987 83.276,169.651 82.300 C 168.634 81.557,167.600 81.375,167.600 81.939 M186.400 96.144 C 185.630 96.444,184.528 96.881,183.951 97.116 C 182.539 97.689,178.791 101.531,178.309 102.900 C 178.096 103.505,177.777 104.000,177.601 104.000 C 177.425 104.000,176.978 105.358,176.609 107.018 C 175.456 112.202,176.761 115.503,181.400 119.132 C 182.938 120.335,187.565 121.308,188.866 120.701 C 189.600 120.359,190.560 120.015,191.000 119.936 C 191.880 119.779,192.324 117.707,191.711 116.613 C 191.417 116.087,191.169 116.117,189.807 116.847 C 184.785 119.539,176.969 112.513,180.213 108.224 C 180.536 107.796,180.800 107.176,180.800 106.845 C 180.800 105.654,183.496 102.205,185.760 100.500 C 189.563 97.637,196.800 101.643,196.800 106.611 C 196.800 107.017,197.234 107.200,198.200 107.200 L 199.600 107.200 199.600 104.800 C 199.600 101.993,196.486 98.206,193.346 97.194 C 192.496 96.920,191.611 96.547,191.380 96.365 C 190.562 95.722,187.800 95.599,186.400 96.144 M205.200 110.190 C 204.650 110.508,203.840 110.971,203.400 111.218 C 202.960 111.465,202.060 112.384,201.400 113.260 C 200.740 114.136,199.885 115.151,199.500 115.515 C 199.115 115.880,198.799 116.453,198.797 116.789 C 198.796 117.125,198.437 117.940,198.000 118.600 C 196.501 120.863,196.844 126.273,198.635 128.619 C 200.208 130.679,201.975 132.363,202.600 132.396 C 202.820 132.408,203.450 132.770,204.000 133.200 C 205.615 134.464,211.083 134.337,213.395 132.982 C 215.888 131.521,219.997 126.484,220.002 124.882 C 220.004 124.507,220.274 123.684,220.602 123.054 C 221.259 121.795,221.417 118.181,220.831 117.819 C 220.628 117.694,220.337 117.008,220.184 116.295 C 219.193 111.669,209.484 107.713,205.200 110.190 M212.531 113.211 C 216.525 114.977,218.621 119.637,216.672 122.418 C 216.303 122.946,216.000 123.616,216.000 123.906 C 216.000 124.651,212.957 128.683,211.889 129.355 C 204.909 133.742,197.943 126.300,202.211 119.017 C 205.461 113.472,208.833 111.575,212.531 113.211 M229.518 122.900 C 228.981 123.615,228.425 124.515,228.283 124.900 C 228.141 125.285,227.839 125.600,227.613 125.600 C 227.386 125.600,227.199 125.825,227.198 126.100 C 227.196 126.375,226.387 127.770,225.400 129.200 C 224.413 130.630,223.604 132.031,223.602 132.313 C 223.601 132.594,223.330 132.929,223.000 133.055 C 222.670 133.182,222.400 133.491,222.399 133.743 C 222.399 133.994,221.679 135.237,220.799 136.504 C 219.920 137.772,219.200 138.930,219.200 139.078 C 219.200 139.227,218.811 139.763,218.336 140.269 L 217.471 141.189 218.556 142.194 C 219.153 142.747,219.742 143.200,219.865 143.200 C 220.325 143.200,224.000 145.748,224.000 146.067 C 224.000 146.250,224.336 146.400,224.746 146.400 C 225.156 146.400,226.007 146.805,226.636 147.300 C 229.526 149.573,236.806 148.377,239.389 145.204 C 239.835 144.657,240.497 143.909,240.861 143.544 C 241.224 143.178,241.650 142.456,241.808 141.939 C 241.966 141.423,242.388 140.666,242.747 140.258 C 243.915 138.932,243.672 131.777,242.400 130.014 C 240.627 127.557,232.274 121.600,230.602 121.600 C 230.543 121.600,230.055 122.185,229.518 122.900 M235.304 127.864 C 238.168 129.863,239.098 130.934,239.604 132.816 C 240.125 134.749,239.516 138.763,238.598 139.444 C 238.269 139.688,238.000 140.087,238.000 140.330 C 238.000 141.250,235.409 143.669,233.337 144.684 L 231.181 145.739 228.890 144.810 C 227.631 144.299,226.330 143.650,225.999 143.368 C 225.669 143.086,224.904 142.668,224.299 142.438 C 223.030 141.955,222.662 139.381,223.800 138.945 C 224.130 138.818,224.400 138.509,224.401 138.257 C 224.401 138.006,225.079 136.810,225.908 135.600 C 226.736 134.390,227.632 132.905,227.898 132.300 C 228.165 131.695,228.567 131.200,228.791 131.200 C 229.016 131.200,229.200 130.943,229.200 130.629 C 229.200 130.314,229.447 129.810,229.748 129.509 C 230.050 129.208,230.594 128.385,230.958 127.680 C 231.822 126.010,232.702 126.047,235.304 127.864 M252.756 137.100 C 251.623 138.495,250.400 140.376,250.400 140.722 C 250.400 140.917,250.040 141.402,249.600 141.800 C 249.160 142.198,248.800 142.668,248.800 142.844 C 248.800 143.148,247.209 145.719,246.460 146.625 C 246.266 146.859,245.875 147.485,245.591 148.017 C 245.306 148.549,244.832 149.225,244.537 149.520 C 244.242 149.816,244.000 150.286,244.000 150.567 C 244.000 150.847,243.640 151.402,243.200 151.800 C 242.760 152.198,242.400 152.683,242.400 152.878 C 242.400 153.073,242.021 153.745,241.559 154.371 C 240.507 155.792,240.811 156.942,242.413 157.606 C 243.066 157.876,243.600 158.252,243.600 158.441 C 243.600 158.630,244.050 158.898,244.600 159.036 C 245.150 159.174,245.600 159.452,245.600 159.653 C 245.600 159.855,246.040 160.187,246.578 160.392 C 247.116 160.596,248.421 161.369,249.478 162.108 C 253.607 164.996,254.837 165.093,254.785 162.526 C 254.772 161.854,252.381 160.067,250.700 159.473 C 250.315 159.336,250.000 159.052,250.000 158.840 C 250.000 158.627,249.595 158.332,249.100 158.183 C 248.605 158.034,247.638 157.378,246.951 156.726 L 245.701 155.541 246.463 154.071 C 248.736 149.686,250.046 148.752,251.720 150.325 C 252.232 150.806,252.810 151.200,253.004 151.200 C 253.355 151.200,256.418 153.173,256.800 153.645 C 257.493 154.502,258.693 154.353,259.148 153.354 C 259.717 152.106,259.105 151.189,257.171 150.388 C 256.527 150.121,256.000 149.747,256.000 149.557 C 256.000 149.366,255.415 148.962,254.700 148.657 C 252.493 147.717,251.321 146.171,252.134 145.273 C 252.500 144.868,252.800 144.332,252.800 144.082 C 252.800 143.832,253.339 143.014,253.998 142.263 L 255.196 140.899 256.798 141.691 C 257.679 142.127,258.400 142.645,258.400 142.842 C 258.400 143.039,258.625 143.205,258.900 143.211 C 259.175 143.218,260.476 143.938,261.791 144.811 C 264.573 146.659,264.657 146.674,265.866 145.538 L 266.783 144.676 265.771 143.738 C 265.214 143.222,264.633 142.800,264.479 142.799 C 264.326 142.799,263.210 142.121,262.000 141.292 C 260.790 140.464,259.305 139.568,258.700 139.302 C 258.095 139.035,257.600 138.633,257.600 138.409 C 257.600 138.184,257.358 138.000,257.061 138.000 C 256.765 138.000,256.107 137.640,255.600 137.200 C 254.464 136.214,253.502 136.181,252.756 137.100 M109.800 195.876 C 108.538 196.080,107.368 197.097,106.451 198.788 C 100.745 209.316,101.580 216.964,109.320 225.056 L 111.669 227.512 116.296 228.010 C 132.066 229.709,138.251 224.209,137.460 209.191 C 137.158 203.473,136.922 202.262,136.017 201.780 C 133.834 200.620,129.990 198.800,129.717 198.798 C 129.543 198.796,128.885 198.526,128.255 198.198 C 127.626 197.870,125.935 197.413,124.497 197.184 C 123.060 196.954,121.595 196.614,121.242 196.429 C 120.482 196.029,111.529 195.596,109.800 195.876 M268.270 195.986 C 267.648 196.185,266.291 197.124,265.253 198.073 C 264.216 199.023,262.622 200.340,261.711 201.000 C 260.093 202.173,260.049 202.267,259.775 205.163 C 259.420 208.907,259.880 215.803,260.575 217.164 C 260.866 217.734,261.236 218.815,261.398 219.567 C 261.746 221.181,262.012 221.563,264.464 223.970 C 267.833 227.279,274.798 228.694,279.516 227.030 C 280.406 226.716,281.971 226.333,282.995 226.180 C 286.355 225.676,288.593 224.296,289.579 222.121 C 290.058 221.065,290.702 219.660,291.011 219.000 C 291.320 218.340,291.690 217.260,291.834 216.600 C 291.978 215.940,292.382 214.950,292.732 214.400 C 293.896 212.574,293.667 203.378,292.413 201.600 C 290.863 199.401,288.064 197.203,286.807 197.198 C 286.473 197.196,285.660 196.896,285.000 196.530 C 283.621 195.765,270.317 195.333,268.270 195.986 " stroke="none" fill="#fc6786" fill-rule="evenodd"></path><path id="path2" d="M221.080 161.453 C 220.645 161.888,220.750 172.834,221.205 174.403 C 221.427 175.171,221.785 176.880,222.000 178.200 C 223.725 188.790,231.503 197.526,239.906 198.312 C 249.958 199.251,259.971 195.551,263.931 189.433 C 267.628 183.724,269.534 170.840,267.417 165.872 C 266.588 163.926,265.836 164.164,265.672 166.423 C 265.602 167.392,265.375 168.389,265.168 168.639 C 264.961 168.888,264.610 170.602,264.389 172.446 C 264.168 174.291,263.741 176.610,263.440 177.600 C 263.140 178.590,262.780 179.891,262.641 180.492 C 260.687 188.942,248.934 194.315,238.638 191.465 C 235.716 190.657,235.143 190.147,233.675 187.057 C 230.557 180.490,229.565 176.281,229.263 168.342 L 229.000 161.400 225.180 161.286 C 223.079 161.224,221.234 161.299,221.080 161.453 M171.396 164.306 C 170.085 165.259,168.075 172.062,167.881 176.200 C 167.721 179.611,167.245 180.847,163.941 186.439 C 161.175 191.120,161.440 191.005,153.466 190.968 C 138.573 190.900,131.863 184.426,130.908 169.200 L 130.595 164.200 129.542 166.400 C 126.539 172.679,127.511 182.128,131.826 188.600 C 136.805 196.067,140.898 198.156,150.600 198.182 C 157.345 198.201,157.238 198.222,161.919 195.901 C 170.157 191.814,177.800 171.899,173.581 165.517 C 172.592 164.021,172.136 163.768,171.396 164.306 M180.400 202.413 C 180.400 206.035,182.493 210.910,185.108 213.378 C 186.291 214.495,186.326 214.501,192.249 214.583 C 197.481 214.656,200.382 214.940,205.039 215.835 C 209.785 216.747,215.200 211.700,215.200 206.364 C 215.200 202.097,214.189 201.953,212.853 206.029 C 211.792 209.268,208.304 211.184,205.187 210.240 C 203.498 209.728,199.887 207.588,199.410 206.816 C 199.080 206.283,197.621 206.818,196.459 207.900 C 194.860 209.387,191.245 211.070,189.000 211.373 C 186.128 211.760,185.561 211.218,185.227 207.767 C 184.701 202.331,180.400 197.560,180.400 202.413 " stroke="none" fill="#404040" fill-rule="evenodd"></path><path id="path3" d="M220.400 160.795 C 219.536 161.346,219.645 174.974,220.534 177.600 C 220.870 178.590,221.273 180.120,221.431 181.000 C 221.588 181.880,222.051 183.227,222.459 183.994 C 222.866 184.761,223.200 185.684,223.200 186.045 C 223.200 186.406,223.470 186.926,223.800 187.200 C 224.130 187.474,224.400 187.882,224.400 188.108 C 224.400 189.200,228.505 194.345,230.908 196.264 C 234.468 199.107,242.391 200.617,247.400 199.408 C 248.720 199.089,250.208 198.822,250.707 198.814 C 253.833 198.765,262.007 194.243,264.109 191.400 C 265.520 189.491,267.599 185.168,267.602 184.135 C 267.604 183.731,267.837 182.950,268.120 182.400 C 272.251 174.386,270.738 161.493,265.735 162.071 C 264.088 162.261,263.613 163.597,263.606 168.050 C 263.602 170.278,263.368 172.556,263.050 173.458 C 262.748 174.315,262.367 175.984,262.205 177.167 C 261.227 184.276,256.001 189.491,248.908 190.435 C 244.042 191.082,236.648 190.397,236.230 189.260 C 236.096 188.897,235.374 187.520,234.626 186.200 C 233.877 184.880,233.249 183.440,233.230 183.000 C 233.211 182.560,232.933 181.697,232.612 181.082 C 232.291 180.467,231.831 178.874,231.590 177.543 C 231.348 176.212,230.960 174.645,230.727 174.061 C 230.493 173.478,230.275 170.336,230.242 167.079 C 230.193 162.343,230.063 161.084,229.590 160.786 C 228.814 160.295,221.172 160.302,220.400 160.795 M229.263 168.342 C 229.565 176.281,230.557 180.490,233.675 187.057 C 235.143 190.147,235.716 190.657,238.638 191.465 C 248.934 194.315,260.687 188.942,262.641 180.492 C 262.780 179.891,263.140 178.590,263.440 177.600 C 263.741 176.610,264.168 174.291,264.389 172.446 C 264.610 170.602,264.961 168.888,265.168 168.639 C 265.375 168.389,265.602 167.392,265.672 166.423 C 265.836 164.164,266.588 163.926,267.417 165.872 C 269.534 170.840,267.628 183.724,263.931 189.433 C 259.971 195.551,249.958 199.251,239.906 198.312 C 231.503 197.526,223.725 188.790,222.000 178.200 C 221.785 176.880,221.427 175.171,221.205 174.403 C 220.750 172.834,220.645 161.888,221.080 161.453 C 221.234 161.299,223.079 161.224,225.180 161.286 L 229.000 161.400 229.263 168.342 M169.888 163.100 C 167.627 166.779,166.727 170.017,166.624 174.840 C 166.523 179.605,165.748 181.859,162.782 186.025 C 162.352 186.629,161.994 187.276,161.987 187.462 C 161.980 187.648,161.539 188.295,161.007 188.900 L 160.038 190.000 153.443 190.000 C 149.815 190.000,146.750 189.842,146.630 189.649 C 146.511 189.456,145.568 189.086,144.535 188.825 C 143.502 188.565,142.166 188.003,141.567 187.576 C 140.967 187.149,140.323 186.800,140.136 186.800 C 139.406 186.800,135.741 182.459,134.674 180.330 C 133.033 177.060,131.704 170.739,131.634 165.874 C 131.600 163.537,131.105 162.000,130.385 162.000 C 129.833 162.000,127.600 166.882,127.600 168.090 C 127.600 168.647,127.330 169.749,127.000 170.538 C 126.625 171.435,126.400 173.260,126.400 175.400 C 126.400 177.540,126.625 179.365,127.000 180.262 C 127.330 181.051,127.598 181.991,127.595 182.349 C 127.570 185.322,135.898 196.502,138.800 197.392 C 139.350 197.560,140.016 197.870,140.279 198.081 C 140.911 198.586,144.520 199.149,149.109 199.459 C 158.255 200.077,164.733 197.115,169.456 190.155 C 170.672 188.364,173.503 182.443,173.834 181.000 C 173.985 180.340,174.352 179.350,174.649 178.800 C 176.890 174.651,177.427 169.955,176.000 167.000 C 175.575 166.120,175.221 165.258,175.214 165.084 C 175.196 164.685,173.534 162.299,173.000 161.906 C 172.000 161.171,170.788 161.636,169.888 163.100 M173.581 165.517 C 177.800 171.899,170.157 191.814,161.919 195.901 C 157.238 198.222,157.345 198.201,150.600 198.182 C 140.898 198.156,136.805 196.067,131.826 188.600 C 127.511 182.128,126.539 172.679,129.542 166.400 L 130.595 164.200 130.908 169.200 C 131.863 184.426,138.573 190.900,153.466 190.968 C 161.440 191.005,161.175 191.120,163.941 186.439 C 167.245 180.847,167.721 179.611,167.881 176.200 C 168.037 172.862,168.716 169.985,170.147 166.600 C 171.457 163.498,172.110 163.292,173.581 165.517 M179.568 199.260 C 177.658 202.828,180.485 211.390,184.731 214.900 L 186.061 216.000 192.779 216.000 C 198.394 216.000,199.906 216.131,202.000 216.800 C 208.970 219.027,217.200 213.463,217.200 206.524 C 217.200 205.238,215.715 200.435,215.121 199.800 C 214.510 199.148,212.443 201.792,212.155 203.594 C 212.015 204.469,211.653 205.390,211.350 205.641 C 211.048 205.893,210.800 206.315,210.800 206.579 C 210.800 207.760,208.760 209.000,206.864 208.973 C 204.917 208.945,203.844 208.425,200.959 206.114 C 198.812 204.395,198.441 204.440,195.467 206.777 C 193.140 208.606,187.502 210.786,186.804 210.126 C 186.696 210.025,186.504 208.528,186.377 206.801 C 186.107 203.124,184.983 201.031,182.404 199.402 C 180.467 198.180,180.154 198.164,179.568 199.260 M182.503 201.345 C 184.114 202.838,184.938 204.781,185.227 207.767 C 185.561 211.218,186.128 211.760,189.000 211.373 C 191.245 211.070,194.860 209.387,196.459 207.900 C 197.621 206.818,199.080 206.283,199.410 206.816 C 199.887 207.588,203.498 209.728,205.187 210.240 C 208.304 211.184,211.792 209.268,212.853 206.029 C 214.189 201.953,215.200 202.097,215.200 206.364 C 215.200 211.700,209.785 216.747,205.039 215.835 C 200.382 214.940,197.481 214.656,192.249 214.583 C 185.582 214.490,185.241 214.350,182.974 210.759 C 179.794 205.721,179.432 198.499,182.503 201.345 " stroke="none" fill="#a9a9a9" fill-rule="evenodd"></path><path id="path4" d="M145.981 69.700 C 145.236 70.855,144.484 71.980,144.309 72.200 C 143.499 73.219,140.400 78.094,140.400 78.350 C 140.400 78.508,140.130 78.989,139.800 79.419 C 138.685 80.871,137.200 83.234,137.200 83.556 C 137.200 83.732,136.840 84.202,136.400 84.600 C 135.960 84.998,135.600 85.483,135.600 85.678 C 135.600 85.873,135.231 86.531,134.781 87.140 C 133.624 88.705,134.226 90.114,136.481 91.119 C 138.570 92.050,138.553 92.062,141.374 87.821 C 144.436 83.220,144.373 83.252,146.428 85.226 L 148.145 86.876 147.652 88.538 C 147.381 89.452,146.935 91.284,146.660 92.609 C 146.385 93.934,146.026 95.234,145.863 95.498 C 145.173 96.614,148.038 99.200,149.966 99.200 C 150.977 99.200,151.442 98.343,151.812 95.800 C 151.973 94.700,152.351 93.314,152.652 92.720 C 152.953 92.126,153.200 90.484,153.200 89.071 L 153.200 86.502 155.213 86.308 C 162.403 85.617,162.965 76.917,156.109 72.441 C 153.224 70.557,152.781 70.256,151.847 69.544 C 151.001 68.900,148.174 67.600,147.619 67.600 C 147.462 67.600,146.725 68.545,145.981 69.700 M150.354 70.055 C 150.879 70.465,151.458 70.800,151.641 70.800 C 152.065 70.800,156.657 73.926,157.874 75.043 C 159.495 76.529,160.629 80.364,159.631 80.981 C 159.428 81.106,159.147 81.730,159.007 82.366 C 158.650 83.991,156.223 85.600,154.127 85.600 C 152.035 85.600,151.256 86.409,152.003 87.806 C 152.444 88.630,152.422 89.107,151.863 90.838 C 151.498 91.968,151.200 93.429,151.200 94.085 C 151.200 95.676,150.064 98.000,149.286 98.000 C 147.203 98.000,146.621 95.099,148.000 91.600 C 149.603 87.533,149.078 85.685,145.587 83.103 C 144.335 82.177,140.005 86.034,140.001 88.079 C 139.999 88.935,137.958 90.476,137.111 90.261 C 135.188 89.773,135.034 88.586,136.588 86.245 C 137.365 85.075,138.000 83.911,138.000 83.659 C 138.000 83.406,138.184 83.200,138.409 83.200 C 138.633 83.200,139.035 82.705,139.302 82.100 C 139.568 81.495,140.464 80.010,141.292 78.800 C 142.121 77.590,142.799 76.394,142.799 76.143 C 142.800 75.891,143.070 75.582,143.400 75.455 C 143.730 75.329,144.000 74.977,144.000 74.675 C 144.000 74.372,144.360 73.798,144.800 73.400 C 145.240 73.002,145.600 72.447,145.600 72.167 C 145.600 71.886,145.842 71.416,146.137 71.120 C 146.432 70.825,146.893 70.174,147.161 69.673 C 147.711 68.645,148.701 68.764,150.354 70.055 M149.156 74.100 C 145.958 76.777,145.616 80.180,148.402 81.601 C 149.251 82.034,150.059 82.571,150.196 82.794 C 151.224 84.457,155.615 82.231,156.252 79.725 C 156.890 77.215,151.006 72.551,149.156 74.100 M153.700 76.941 C 155.124 78.263,155.172 80.065,153.818 81.418 C 152.606 82.630,152.523 82.630,150.087 81.406 C 146.800 79.755,146.761 79.623,148.597 76.412 C 149.670 74.534,151.288 74.701,153.700 76.941 M164.290 85.300 C 162.650 87.775,161.080 90.239,160.800 90.775 C 160.521 91.311,160.134 91.941,159.940 92.175 C 159.191 93.081,157.600 95.652,157.600 95.956 C 157.600 96.132,157.240 96.602,156.800 97.000 C 156.360 97.398,156.000 97.939,156.000 98.201 C 156.000 98.463,155.640 99.093,155.200 99.600 C 153.367 101.714,155.631 104.223,162.775 107.994 C 163.311 108.277,163.941 108.666,164.175 108.860 C 167.179 111.344,169.035 111.635,170.230 109.810 C 171.161 108.390,170.669 106.693,169.083 105.849 C 167.034 104.760,163.819 102.685,162.300 101.471 C 161.563 100.883,161.354 100.000,161.951 100.000 C 162.145 100.000,162.513 99.505,162.770 98.900 C 163.725 96.653,164.722 95.805,165.540 96.545 C 165.938 96.905,166.370 97.200,166.500 97.200 C 166.631 97.200,167.945 98.010,169.422 99.000 C 172.487 101.056,172.709 101.101,174.146 99.971 C 176.232 98.330,175.685 97.208,171.402 94.342 C 167.300 91.597,167.230 91.496,168.400 90.000 C 168.830 89.450,169.186 88.775,169.191 88.500 C 169.201 87.955,171.600 87.782,171.600 88.326 C 171.600 88.505,172.185 88.954,172.900 89.323 C 174.615 90.210,175.556 90.812,176.928 91.900 C 178.798 93.385,180.614 93.133,181.572 91.255 L 182.360 89.711 181.280 88.734 C 180.686 88.197,179.390 87.244,178.400 86.616 C 177.410 85.989,176.112 85.143,175.516 84.737 C 174.920 84.332,174.337 84.000,174.220 84.000 C 174.104 84.000,172.972 83.280,171.704 82.401 C 168.098 79.897,167.790 80.017,164.290 85.300 M169.651 82.300 C 170.987 83.276,172.033 83.924,173.200 84.498 C 173.750 84.769,174.380 85.183,174.600 85.418 C 175.128 85.983,178.304 88.000,178.666 88.000 C 179.327 88.000,180.800 89.811,180.800 90.623 C 180.800 91.953,179.115 92.118,177.524 90.944 C 176.820 90.425,176.010 90.000,175.722 90.000 C 175.435 90.000,175.200 89.816,175.200 89.590 C 175.200 89.365,174.795 88.992,174.300 88.762 C 173.805 88.533,172.770 87.997,172.000 87.573 C 169.990 86.465,169.420 86.595,168.035 88.479 C 166.316 90.816,166.877 94.000,169.008 94.000 C 169.265 94.000,169.802 94.360,170.200 94.800 C 170.598 95.240,171.139 95.600,171.401 95.600 C 171.663 95.600,172.293 95.960,172.800 96.400 C 173.307 96.840,173.875 97.200,174.061 97.200 C 174.684 97.200,174.409 98.267,173.598 99.001 C 172.615 99.891,172.377 99.793,167.524 96.500 C 164.695 94.581,164.162 94.743,161.745 98.259 C 160.471 100.113,160.279 101.022,161.008 101.751 C 161.765 102.507,165.772 105.200,166.141 105.200 C 166.402 105.200,167.013 105.685,168.992 107.465 L 170.075 108.439 169.028 109.409 C 167.985 110.376,167.977 110.377,167.190 109.590 C 166.756 109.156,166.130 108.800,165.800 108.800 C 165.470 108.800,165.200 108.649,165.200 108.464 C 165.200 108.280,164.743 107.920,164.185 107.666 C 163.627 107.412,162.952 107.020,162.685 106.796 C 161.764 106.022,159.163 104.400,158.844 104.400 C 158.668 104.400,158.213 104.056,157.833 103.636 C 157.452 103.216,156.704 102.762,156.171 102.628 C 154.827 102.291,154.948 101.571,156.799 98.904 C 157.679 97.637,158.399 96.375,158.399 96.100 C 158.400 95.825,158.586 95.600,158.813 95.600 C 159.039 95.600,159.346 95.285,159.493 94.900 C 159.641 94.515,160.178 93.570,160.688 92.800 C 161.198 92.030,161.788 91.130,162.000 90.800 C 162.212 90.470,162.839 89.517,163.393 88.682 C 163.947 87.847,164.400 87.020,164.400 86.844 C 164.400 86.668,164.760 86.198,165.200 85.800 C 165.640 85.402,166.000 84.861,166.000 84.599 C 166.000 84.337,166.360 83.707,166.800 83.200 C 167.240 82.693,167.600 82.125,167.600 81.939 C 167.600 81.375,168.634 81.557,169.651 82.300 M186.600 95.191 C 183.527 95.593,178.339 99.511,177.745 101.878 C 177.617 102.385,177.367 102.800,177.188 102.800 C 177.009 102.800,176.645 103.475,176.379 104.300 C 176.113 105.125,175.727 106.013,175.522 106.272 C 173.620 108.675,175.316 114.911,178.720 118.034 C 182.445 121.450,188.524 123.316,190.262 121.578 C 190.494 121.346,191.295 120.851,192.042 120.478 C 193.713 119.644,193.918 118.584,192.781 116.657 C 191.783 114.965,191.111 114.865,188.685 116.044 L 186.948 116.887 185.118 116.054 C 181.216 114.276,179.878 109.603,182.279 106.141 C 182.714 105.513,183.183 104.685,183.322 104.300 C 183.461 103.915,183.748 103.600,183.960 103.600 C 184.173 103.600,184.460 103.240,184.600 102.800 C 184.740 102.360,185.038 102.000,185.264 102.000 C 185.489 102.000,186.131 101.640,186.691 101.200 C 189.494 98.995,195.200 101.928,195.200 105.574 C 195.200 108.482,200.102 109.291,200.965 106.526 C 202.646 101.135,193.902 94.235,186.600 95.191 M191.380 96.365 C 191.611 96.547,192.496 96.920,193.346 97.194 C 196.486 98.206,199.600 101.993,199.600 104.800 L 199.600 107.200 198.200 107.200 C 197.234 107.200,196.800 107.017,196.800 106.611 C 196.800 101.643,189.563 97.637,185.760 100.500 C 183.496 102.205,180.800 105.654,180.800 106.845 C 180.800 107.176,180.536 107.796,180.213 108.224 C 176.969 112.513,184.785 119.539,189.807 116.847 C 191.169 116.117,191.417 116.087,191.711 116.613 C 192.324 117.707,191.880 119.779,191.000 119.936 C 190.560 120.015,189.600 120.359,188.866 120.701 C 187.565 121.308,182.938 120.335,181.400 119.132 C 176.761 115.503,175.456 112.202,176.609 107.018 C 176.978 105.358,177.425 104.000,177.601 104.000 C 177.777 104.000,178.096 103.505,178.309 102.900 C 178.791 101.531,182.539 97.689,183.951 97.116 C 187.250 95.777,187.922 95.616,189.380 95.817 C 190.249 95.937,191.149 96.184,191.380 96.365 M205.830 108.759 C 203.679 109.459,198.711 113.957,198.186 115.681 C 198.032 116.186,197.680 116.870,197.405 117.200 C 196.211 118.632,195.556 123.524,196.242 125.885 C 197.122 128.912,200.393 133.200,201.821 133.200 C 201.995 133.200,202.430 133.465,202.788 133.789 C 204.910 135.710,211.642 135.548,214.469 133.508 C 217.105 131.607,219.926 128.143,220.602 125.977 C 220.770 125.440,221.154 124.645,221.454 124.211 C 222.284 123.012,222.182 117.451,221.300 115.862 C 217.953 109.828,211.559 106.893,205.830 108.759 M214.713 110.687 C 217.401 112.263,219.860 114.783,220.184 116.295 C 220.337 117.008,220.628 117.694,220.831 117.819 C 221.417 118.181,221.259 121.795,220.602 123.054 C 220.274 123.684,220.004 124.507,220.002 124.882 C 219.997 126.484,215.888 131.521,213.395 132.982 C 211.083 134.337,205.615 134.464,204.000 133.200 C 203.450 132.770,202.820 132.408,202.600 132.396 C 201.975 132.363,200.208 130.679,198.635 128.619 C 196.844 126.273,196.501 120.863,198.000 118.600 C 198.437 117.940,198.796 117.125,198.797 116.789 C 198.799 116.453,199.115 115.880,199.500 115.515 C 199.885 115.151,200.740 114.136,201.400 113.260 C 202.060 112.384,202.960 111.465,203.400 111.218 C 203.840 110.971,204.650 110.508,205.200 110.190 C 207.056 109.117,212.521 109.402,214.713 110.687 M207.600 113.222 C 199.695 117.607,198.656 128.001,205.895 130.283 C 209.582 131.445,216.000 127.395,216.000 123.906 C 216.000 123.616,216.303 122.946,216.672 122.418 C 219.883 117.835,212.598 110.451,207.600 113.222 M214.214 115.305 C 217.361 118.452,216.292 123.739,211.608 128.200 C 208.172 131.472,201.871 128.694,201.913 123.925 C 201.943 120.674,205.460 114.952,207.855 114.261 C 209.684 113.733,213.223 114.314,214.214 115.305 M229.929 120.551 C 229.365 121.138,229.331 121.187,226.708 125.237 C 225.769 126.687,224.774 128.217,224.498 128.637 C 224.221 129.057,223.693 129.985,223.323 130.700 C 222.954 131.415,222.527 132.000,222.374 132.000 C 222.222 132.000,221.873 132.540,221.600 133.200 C 221.327 133.860,220.974 134.400,220.816 134.400 C 220.658 134.400,220.311 134.878,220.045 135.462 C 219.779 136.045,218.921 137.488,218.138 138.666 C 216.433 141.236,216.538 142.177,218.690 143.596 C 219.520 144.144,220.290 144.704,220.400 144.841 C 220.510 144.977,221.140 145.389,221.800 145.756 C 222.460 146.124,223.540 146.777,224.200 147.208 C 226.371 148.625,229.198 149.646,231.600 149.880 C 234.762 150.187,242.400 145.371,242.400 143.069 C 242.400 142.846,242.655 142.379,242.966 142.031 C 244.688 140.109,245.647 134.549,244.602 132.546 C 244.274 131.916,244.004 131.113,244.002 130.762 C 243.998 129.563,237.022 123.200,235.711 123.200 C 235.575 123.200,235.179 122.960,234.831 122.668 C 232.942 121.075,230.456 120.002,229.929 120.551 M231.860 122.100 C 234.923 123.429,240.873 127.897,242.400 130.014 C 243.672 131.777,243.915 138.932,242.747 140.258 C 242.388 140.666,241.966 141.423,241.808 141.939 C 241.650 142.456,241.224 143.178,240.861 143.544 C 240.497 143.909,239.835 144.657,239.389 145.204 C 236.806 148.377,229.526 149.573,226.636 147.300 C 226.007 146.805,225.156 146.400,224.746 146.400 C 224.336 146.400,224.000 146.250,224.000 146.067 C 224.000 145.748,220.325 143.200,219.865 143.200 C 219.742 143.200,219.153 142.747,218.556 142.194 L 217.471 141.189 218.336 140.269 C 218.811 139.763,219.200 139.227,219.200 139.078 C 219.200 138.930,219.920 137.772,220.799 136.504 C 221.679 135.237,222.399 133.994,222.399 133.743 C 222.400 133.491,222.670 133.182,223.000 133.055 C 223.330 132.929,223.601 132.594,223.602 132.313 C 223.604 132.031,224.413 130.630,225.400 129.200 C 226.387 127.770,227.196 126.375,227.198 126.100 C 227.199 125.825,227.386 125.600,227.613 125.600 C 227.839 125.600,228.141 125.285,228.283 124.900 C 228.529 124.232,230.378 121.600,230.602 121.600 C 230.660 121.600,231.227 121.825,231.860 122.100 M230.958 127.680 C 230.594 128.385,230.050 129.208,229.748 129.509 C 229.447 129.810,229.200 130.314,229.200 130.629 C 229.200 130.943,229.016 131.200,228.791 131.200 C 228.567 131.200,228.165 131.695,227.898 132.300 C 227.632 132.905,226.736 134.390,225.908 135.600 C 225.079 136.810,224.401 138.006,224.401 138.257 C 224.400 138.509,224.130 138.818,223.800 138.945 C 222.662 139.381,223.030 141.955,224.299 142.438 C 224.904 142.668,225.669 143.086,225.999 143.368 C 226.330 143.650,227.631 144.299,228.890 144.810 L 231.181 145.739 233.337 144.684 C 235.409 143.669,238.000 141.250,238.000 140.330 C 238.000 140.087,238.269 139.688,238.598 139.444 C 240.319 138.167,240.116 132.215,238.286 130.269 C 235.018 126.794,231.973 125.719,230.958 127.680 M234.499 128.453 C 238.230 130.450,239.977 134.940,238.211 138.000 C 237.894 138.550,237.464 139.360,237.255 139.800 C 235.382 143.749,230.925 144.918,226.615 142.593 C 225.357 141.915,224.402 141.125,224.401 140.761 C 224.400 139.915,225.466 137.809,226.208 137.193 C 226.534 136.923,226.800 136.467,226.800 136.180 C 226.800 135.892,227.025 135.419,227.300 135.129 C 228.056 134.329,230.000 131.398,230.000 131.057 C 230.000 129.306,232.927 127.612,234.499 128.453 M252.546 135.668 C 252.076 135.895,251.486 136.531,251.236 137.081 C 250.986 137.630,249.435 140.126,247.790 142.627 C 246.146 145.129,244.800 147.254,244.800 147.351 C 244.800 147.447,243.623 149.286,242.185 151.437 C 240.747 153.588,239.667 155.599,239.785 155.906 C 239.903 156.214,240.000 156.726,240.000 157.045 C 240.000 157.364,240.315 157.742,240.700 157.886 C 241.085 158.029,241.850 158.445,242.400 158.810 C 247.211 162.004,248.451 162.800,248.617 162.800 C 248.722 162.800,249.661 163.396,250.704 164.125 C 253.548 166.112,253.822 166.146,255.192 164.685 C 256.877 162.887,256.301 160.400,254.200 160.400 C 253.870 160.400,253.600 160.232,253.600 160.027 C 253.600 159.822,253.261 159.546,252.848 159.415 C 252.434 159.284,251.720 158.867,251.261 158.488 C 250.802 158.110,249.700 157.359,248.813 156.820 C 246.926 155.673,246.824 154.990,248.230 152.918 C 249.770 150.647,250.110 150.590,252.601 152.184 C 253.819 152.963,254.919 153.600,255.045 153.600 C 255.171 153.600,255.731 153.960,256.291 154.400 C 257.713 155.519,259.109 155.436,259.673 154.200 C 259.923 153.650,260.280 153.200,260.464 153.200 C 262.233 153.200,260.322 151.028,256.073 148.210 C 252.823 146.053,252.593 145.273,254.606 143.227 C 255.645 142.172,255.903 142.222,258.600 144.000 C 259.260 144.435,260.385 145.096,261.100 145.469 C 261.815 145.843,262.400 146.277,262.400 146.435 C 262.400 146.593,262.970 146.920,263.667 147.163 C 266.020 147.984,268.512 145.271,266.970 143.567 C 266.094 142.599,262.927 140.400,262.409 140.400 C 262.215 140.400,261.819 140.175,261.529 139.900 C 260.705 139.121,257.793 137.200,257.436 137.200 C 257.260 137.200,256.581 136.750,255.927 136.200 C 254.655 135.130,253.902 135.011,252.546 135.668 M255.600 137.200 C 256.107 137.640,256.765 138.000,257.061 138.000 C 257.358 138.000,257.600 138.184,257.600 138.409 C 257.600 138.633,258.095 139.035,258.700 139.302 C 259.305 139.568,260.790 140.464,262.000 141.292 C 263.210 142.121,264.326 142.799,264.479 142.799 C 264.633 142.800,265.214 143.222,265.771 143.738 L 266.783 144.676 265.866 145.538 C 264.657 146.674,264.573 146.659,261.791 144.811 C 260.476 143.938,259.175 143.218,258.900 143.211 C 258.625 143.205,258.400 143.039,258.400 142.842 C 258.400 142.645,257.679 142.127,256.798 141.691 L 255.196 140.899 253.998 142.263 C 253.339 143.014,252.800 143.832,252.800 144.082 C 252.800 144.332,252.500 144.868,252.134 145.273 C 251.321 146.171,252.493 147.717,254.700 148.657 C 255.415 148.962,256.000 149.366,256.000 149.557 C 256.000 149.747,256.527 150.121,257.171 150.388 C 259.105 151.189,259.717 152.106,259.148 153.354 C 258.693 154.353,257.493 154.502,256.800 153.645 C 256.418 153.173,253.355 151.200,253.004 151.200 C 252.810 151.200,252.232 150.806,251.720 150.325 C 250.046 148.752,248.736 149.686,246.463 154.071 L 245.701 155.541 246.951 156.726 C 247.638 157.378,248.605 158.034,249.100 158.183 C 249.595 158.332,250.000 158.627,250.000 158.840 C 250.000 159.052,250.315 159.336,250.700 159.473 C 252.381 160.067,254.772 161.854,254.785 162.526 C 254.837 165.093,253.607 164.996,249.478 162.108 C 248.421 161.369,247.116 160.596,246.578 160.392 C 246.040 160.187,245.600 159.855,245.600 159.653 C 245.600 159.452,245.150 159.174,244.600 159.036 C 244.050 158.898,243.600 158.630,243.600 158.441 C 243.600 158.252,243.066 157.876,242.413 157.606 C 240.811 156.942,240.507 155.792,241.559 154.371 C 242.021 153.745,242.400 153.073,242.400 152.878 C 242.400 152.683,242.760 152.198,243.200 151.800 C 243.640 151.402,244.000 150.847,244.000 150.567 C 244.000 150.286,244.242 149.816,244.537 149.520 C 244.832 149.225,245.306 148.549,245.591 148.017 C 245.875 147.485,246.266 146.859,246.460 146.625 C 247.209 145.719,248.800 143.148,248.800 142.844 C 248.800 142.668,249.160 142.198,249.600 141.800 C 250.040 141.402,250.400 140.917,250.400 140.722 C 250.400 140.376,251.623 138.495,252.756 137.100 C 253.502 136.181,254.464 136.214,255.600 137.200 M131.724 166.600 C 131.726 167.920,131.801 168.412,131.890 167.693 C 131.979 166.974,131.977 165.894,131.886 165.293 C 131.795 164.692,131.722 165.280,131.724 166.600 M230.124 167.800 C 230.126 169.120,230.201 169.612,230.290 168.893 C 230.379 168.174,230.377 167.094,230.286 166.493 C 230.195 165.892,230.122 166.480,230.124 167.800 M270.493 170.800 C 270.493 171.570,270.575 171.885,270.676 171.500 C 270.776 171.115,270.776 170.485,270.676 170.100 C 270.575 169.715,270.493 170.030,270.493 170.800 M109.520 194.811 C 106.466 195.326,105.197 196.986,102.344 204.200 C 98.889 212.936,104.792 226.675,113.000 229.003 C 121.687 231.467,133.275 228.786,136.013 223.679 C 136.388 222.980,136.874 222.182,137.092 221.904 C 139.664 218.643,139.872 205.116,137.408 201.357 C 136.620 200.154,131.562 197.830,125.400 195.840 C 122.163 194.794,113.102 194.207,109.520 194.811 M268.090 194.825 C 266.457 195.146,264.436 196.627,260.183 200.617 C 256.420 204.147,258.633 220.961,263.412 225.157 C 267.435 228.689,276.401 229.846,282.744 227.651 C 284.097 227.183,285.517 226.799,285.902 226.799 C 287.314 226.795,290.725 224.150,290.799 223.000 C 290.813 222.780,291.268 221.700,291.809 220.600 C 292.350 219.500,292.794 218.321,292.796 217.980 C 292.798 217.639,292.961 217.189,293.158 216.980 C 296.123 213.833,295.467 202.445,292.123 199.002 C 288.354 195.122,276.786 193.111,268.090 194.825 M121.242 196.429 C 121.595 196.614,123.060 196.954,124.497 197.184 C 125.935 197.413,127.626 197.870,128.255 198.198 C 128.885 198.526,129.543 198.796,129.717 198.798 C 129.990 198.800,133.834 200.620,136.017 201.780 C 136.922 202.262,137.158 203.473,137.460 209.191 C 138.251 224.209,132.066 229.709,116.296 228.010 L 111.669 227.512 109.320 225.056 C 101.580 216.964,100.745 209.316,106.451 198.788 C 107.368 197.097,108.538 196.080,109.800 195.876 C 111.529 195.596,120.482 196.029,121.242 196.429 M285.000 196.530 C 285.660 196.896,286.473 197.196,286.807 197.198 C 288.064 197.203,290.863 199.401,292.413 201.600 C 293.667 203.378,293.896 212.574,292.732 214.400 C 292.382 214.950,291.978 215.940,291.834 216.600 C 291.690 217.260,291.320 218.340,291.011 219.000 C 290.702 219.660,290.058 221.065,289.579 222.121 C 288.593 224.296,286.355 225.676,282.995 226.180 C 281.971 226.333,280.406 226.716,279.516 227.030 C 274.798 228.694,267.833 227.279,264.464 223.970 C 262.012 221.563,261.746 221.181,261.398 219.567 C 261.236 218.815,260.866 217.734,260.575 217.164 C 259.880 215.803,259.420 208.907,259.775 205.163 C 260.049 202.267,260.093 202.173,261.711 201.000 C 262.622 200.340,264.216 199.023,265.253 198.073 C 266.291 197.124,267.648 196.185,268.270 195.986 C 270.317 195.333,283.621 195.765,285.000 196.530 M149.312 199.895 C 150.364 199.977,151.984 199.976,152.912 199.892 C 153.840 199.808,152.980 199.741,151.000 199.742 C 149.020 199.743,148.260 199.812,149.312 199.895 M198.800 204.684 C 199.130 204.805,199.760 205.196,200.200 205.552 C 200.993 206.194,200.994 206.192,200.238 205.300 C 199.819 204.805,199.189 204.414,198.838 204.432 C 198.296 204.458,198.291 204.497,198.800 204.684 " stroke="none" fill="#fca7ba" fill-rule="evenodd"></path></g></svg>